<?xml version="1.0" encoding="utf-8"?>
<svg version="1.1" id="Layer_1" xmlns="http://www.w3.org/2000/svg" xmlns:xlink="http://www.w3.org/1999/xlink" x="0px" y="0px"
	 viewBox="0 0 20 20" style="enable-background:new 0 0 20 20;" xml:space="preserve">
<path d="M18.4,17c0.4,0.4,0.4,1,0,1.4c-0.2,0.2-0.5,0.3-0.7,0.3s-0.5-0.1-0.7-0.3l-7-7l-7,7c-0.2,0.2-0.5,0.3-0.7,0.3
	s-0.5-0.1-0.7-0.3c-0.4-0.4-0.4-1,0-1.4l7-7l-7-7c-0.4-0.4-0.4-1,0-1.4s1-0.4,1.4,0l7,7l7-7c0.4-0.4,1-0.4,1.4,0s0.4,1,0,1.4l-7,7
	L18.4,17z"/></svg>